<svg xmlns="http://www.w3.org/2000/svg" xmlns:xlink="http://www.w3.org/1999/xlink">
	<path d="M159.978,220.073c0,27.829,10.137,56.011,27.811,77.321c18.586,22.409,42.849,34.751,68.318,34.751
		c25.466,0,49.699-12.335,68.237-34.732c17.616-21.284,27.719-49.455,27.719-77.291v-24.518c7.124-30.679,8.618-57.229,8.607-74.163
		c-0.015-21.864-2.393-36.97-4.613-43.816c-1.179-3.637-4.716-5.846-8.372-5.492c-0.604-0.054-1.223-0.048-1.85,0.041
		c-14.879,2.126-33.132-1.54-52.458-5.421c-31.312-6.287-66.688-13.381-93.744,5.377c-0.241-0.022-0.484-0.037-0.731-0.037
		c-15.185,0-28.667,6.068-37.963,17.086c-8.587,10.178-13.316,24.181-13.316,39.43c0,24.975,10.624,71.13,12.354,78.481V220.073z
		 M312.018,287.212c-15.442,18.658-35.299,28.934-55.911,28.934c-20.623,0-40.512-10.287-56.003-28.965
		c-15.333-18.487-24.126-42.947-24.126-67.107v-9.595c0-19.787,13.287-46.686,18.33-56.181
		c71.946-8.221,120.102,11.646,131.034,16.762l10.721,25.262v23.801C336.063,244.296,327.299,268.749,312.018,287.212z
		 M198.903,88.093c0.58,0,1.145-0.065,1.69-0.183c2.198,0.468,4.578,0.019,6.509-1.447c21.571-16.384,52.864-10.101,83.127-4.023
		c16.195,3.252,31.687,6.362,46.087,6.362c1.994,0,3.967-0.06,5.919-0.188c2.411,13.547,4.358,42.711-1.064,78.784l-2.259-5.322
		c-0.704-1.658-1.945-3.029-3.525-3.894c-2.298-1.257-57.177-30.579-146.492-19.367c-2.619,0.133-5.121,1.543-6.531,3.983
		c-0.512,0.886-7.473,13.042-13.499,28.588c-2.735-14.816-5.242-31.478-5.242-42.779C163.624,100.621,181.342,88.093,198.903,88.093
		z"/>
</svg>
